<svg width="512" height="512" viewBox="0 0 512 512" fill="none" xmlns="http://www.w3.org/2000/svg">
<g id="Linux/AppIcon-512" clip-path="url(#clip0_11_54)">
<g id="Coral Fox mark">
<path id="Vector" d="M265.375 129.125C277.25 116 289.75 104.75 301.625 98.5L297.25 143.5L265.375 129.125Z" fill="url(#paint0_linear_11_54)"/>
<path id="Vector_2" d="M152.875 394.75C156 364.75 160.375 326 165.375 294.125C172.25 247.875 179.125 204.75 191.625 170.375C202.25 140.375 216.625 117.875 236.625 102.875C247.25 93.5 258.5 86 267.875 82.25L265.375 129.125L297.25 143.5C316 150.375 327.25 162.25 332.875 181C337.875 196 349.75 204.125 365.375 208.5C371.625 209.75 377.25 210.375 383.5 211C376 227.25 364.125 236 347.875 239.125C336.625 241 326.625 237.875 316 236.625C284.125 227.25 247.875 225.375 221 246C186.625 269.75 167.25 309.75 152.875 394.75Z" fill="url(#paint1_linear_11_54)"/>
<path id="Vector_3" d="M152.875 394.75C167.25 309.75 186.625 269.75 221 246C247.875 225.375 284.125 227.25 316 236.625C248.5 236.625 225.375 294.75 227.25 294.75C179.75 317.25 154.75 373.5 152.875 394.75Z" fill="url(#paint2_linear_11_54)"/>
<path id="Vector_4" d="M141 449.125C166 445.375 188.5 432.25 203.5 411.625C214.125 397.25 217.25 383.5 227.25 372.25C237.875 361 251.625 356 267.25 353.5C277.25 352.25 287.875 352.875 299.75 352.25C334.125 350.375 357.25 319.125 368.5 275.375C358.5 277.25 348.5 279.125 338.5 279.75C323.5 281 306 280.375 286 281C260.375 281 241.625 284.75 227.25 294.75C179.75 317.25 154.75 373.5 152.875 394.75C148.5 413.5 144.75 431.625 141 449.125Z" fill="url(#paint3_linear_11_54)"/>
<path id="Vector_5" d="M279.75 185.687C289.125 185.375 297.875 184.125 304.125 187.25C310.375 189.75 312.875 194.75 318.5 200.375C306.625 202.25 296.625 199.125 289.75 195.375C285.375 192.875 282.25 189.125 279.75 185.687Z" fill="url(#paint4_linear_11_54)" stroke="#FF7248" stroke-width="0.75"/>
</g>
</g>
<defs>
<linearGradient id="paint0_linear_11_54" x1="265.375" y1="129.125" x2="301.625" y2="98.5" gradientUnits="userSpaceOnUse">
<stop stop-color="#FF3D2A"/>
<stop offset="1" stop-color="#FF6F48"/>
</linearGradient>
<linearGradient id="paint1_linear_11_54" x1="154.75" y1="382.25" x2="367.25" y2="139.75" gradientUnits="userSpaceOnUse">
<stop stop-color="#FF4033"/>
<stop offset="0.45" stop-color="#FF6548"/>
<stop offset="1" stop-color="#FF9A61"/>
</linearGradient>
<linearGradient id="paint2_linear_11_54" x1="165.375" y1="376" x2="227.875" y2="294.75" gradientUnits="userSpaceOnUse">
<stop stop-color="#C90E0A"/>
<stop offset="0.55" stop-color="#E32218"/>
<stop offset="1" stop-color="#F3472F"/>
</linearGradient>
<linearGradient id="paint3_linear_11_54" x1="144.125" y1="445.375" x2="367.25" y2="276.625" gradientUnits="userSpaceOnUse">
<stop stop-color="#FF3E30"/>
<stop offset="0.48" stop-color="#FF6548"/>
<stop offset="1" stop-color="#FF9360"/>
</linearGradient>
<linearGradient id="paint4_linear_11_54" x1="279.75" y1="185.375" x2="317.875" y2="200.375" gradientUnits="userSpaceOnUse">
<stop stop-color="#B80000"/>
<stop offset="1" stop-color="#D71A10"/>
</linearGradient>
<clipPath id="clip0_11_54">
<rect width="512" height="512" fill="white"/>
</clipPath>
</defs>
</svg>
